<svg xmlns="http://www.w3.org/2000/svg" viewBox="0 0 64 64" width="64" height="64" role="img" aria-hidden="true">
  <defs>
    <linearGradient id="lg" x1="0" y1="0" x2="1" y2="1">
      <stop offset="0" stop-color="#0d9488"/>
      <stop offset="0.5" stop-color="#6366f1"/>
      <stop offset="1" stop-color="#6d28d9"/>
    </linearGradient>
  </defs>
  <rect width="64" height="64" rx="16" fill="url(#lg)"/>
  <!-- Bull (left): horns + muzzle — “bull market” -->
  <g fill="rgba(255,255,255,0.96)">
    <path d="M6 18 L10 8 L12 9 L10 20 L8 20 Z M14 8 L20 4 L22 6 L16 20 L12 20 Z"/>
    <ellipse cx="20" cy="32" rx="10" ry="12"/>
    <path d="M20 20 Q28 16 32 24 Q30 20 20 20Z" opacity="0.9"/>
  </g>
  <!-- Bear (right): round ears + snout — “bear market” -->
  <g fill="rgba(255,255,255,0.94)">
    <circle cx="44" cy="20" r="4"/>
    <circle cx="56" cy="20" r="4"/>
    <ellipse cx="50" cy="32" rx="12" ry="11"/>
    <ellipse cx="50" cy="36" rx="7" ry="4" fill="rgba(0,0,0,0.2)"/>
  </g>
  <line x1="32" y1="6" x2="32" y2="58" stroke="rgba(255,255,255,0.25)" stroke-width="1"/>
</svg>
